<svg width="67" height="69" viewBox="0 0 67 69" fill="currentColor" xmlns="http://www.w3.org/2000/svg">
<path fill-rule="evenodd" clip-rule="evenodd" d="M54.3383 6.27069C56.032 7.46314 55.9698 9.90242 54.5315 11.3929V11.3929C53.2206 12.7513 51.0824 12.9803 49.4796 11.9831C45.4216 9.4583 40.6311 8 35.5 8C20.8645 8 9 19.8645 9 34.5C9 49.1355 20.8645 61 35.5 61C40.4101 61 45.0083 59.6646 48.9512 57.3372C50.5808 56.3753 52.7187 56.6544 54.0016 58.0453V58.0453C55.4093 59.5716 55.4165 62.0169 53.6921 63.1734C48.205 66.8533 41.6032 69 34.5 69C15.4462 69 3.05176e-05 53.5538 3.05176e-05 34.5C3.05176e-05 15.4461 15.4462 -3.05176e-05 34.5 -3.05176e-05C41.8843 -3.05176e-05 48.7268 2.31991 54.3383 6.27069ZM35.5 10C40.4191 10 44.9995 11.4497 48.8375 13.9451C50.156 14.8024 50.3804 16.5698 49.5896 17.9293V17.9293C48.5228 19.7632 45.9466 20.2993 44.0996 19.2552C41.5599 17.8194 38.6256 17 35.5 17C25.835 17 18 24.835 18 34.5C18 44.165 25.835 52 35.5 52C38.4817 52 41.2892 51.2543 43.7462 49.9392C45.6169 48.938 48.1809 49.5341 49.2053 51.3922V51.3922C49.9646 52.7692 49.6992 54.5299 48.3616 55.3566C44.6233 57.6668 40.2173 59 35.5 59C21.969 59 11 48.031 11 34.5C11 20.969 21.969 10 35.5 10Z" fill="currentColor"/>
<path d="M48.4251 33.6257C49.1113 34.0066 49.1113 34.9934 48.4251 35.3743L31.9854 44.5007C31.3188 44.8707 30.5 44.3888 30.5 43.6264L30.5 25.3736C30.5 24.6112 31.3188 24.1293 31.9854 24.4993L48.4251 33.6257Z" fill="currentColor"/>
<circle cx="50" cy="47" r="2" fill="currentColor"/>
<path fill-rule="evenodd" clip-rule="evenodd" d="M65.9715 50.6364C65.9903 50.4268 66 50.2145 66 50C66 46.134 62.866 43 59 43C55.134 43 52 46.134 52 50C52 53.866 55.134 57 59 57C59.2145 57 59.4268 56.9903 59.6364 56.9715C58.637 56.1461 58 54.8974 58 53.5C58 51.0147 60.0147 49 62.5 49C63.8974 49 65.1461 49.637 65.9715 50.6364Z" fill="currentColor"/>
<circle cx="52" cy="44" r="1" fill="currentColor"/>
<ellipse cx="2.00668" cy="2" rx="2.00668" ry="2" transform="matrix(1 0 0 -1 48 24)" fill="currentColor"/>
<path fill-rule="evenodd" clip-rule="evenodd" d="M66.0315 18.3636C66.0505 18.5732 66.0602 18.7855 66.0602 19C66.0602 22.866 62.9157 26 59.0368 26C55.1578 26 52.0134 22.866 52.0134 19C52.0134 15.134 55.1578 12 59.0368 12C59.252 12 59.465 12.0097 59.6753 12.0285C58.6725 12.8539 58.0334 14.1026 58.0334 15.5C58.0334 17.9853 60.0549 20 62.5485 20C63.9506 20 65.2034 19.363 66.0315 18.3636Z" fill="currentColor"/>
<ellipse cx="1.00334" cy="1" rx="1.00334" ry="1" transform="matrix(1 0 0 -1 51.01 26)" fill="currentColor"/>
</svg>
